<svg width="51" height="120" viewBox="0 0 51 120" fill="none" xmlns="http://www.w3.org/2000/svg">
<g clip-path="url(#clip0)">
<path d="M21.01 95.6399C21.29 95.7699 21.63 95.8899 22.01 96.0099C22.39 96.1299 22.81 96.2099 23.26 96.2699C23.71 96.3299 24.19 96.3399 24.69 96.3099C25.2 96.2799 25.73 96.1899 26.29 96.0299C27.62 95.6499 28.6 94.9599 29.22 93.9799C29.84 92.9999 30.21 91.7899 30.32 90.3699C30.43 88.9499 30.33 87.3499 30.01 85.5799C29.69 83.8099 29.25 81.9499 28.69 79.9999C28.37 78.8999 28.01 77.6999 27.59 76.3799C27.18 75.0599 26.73 73.6699 26.25 72.2299C25.77 70.7799 25.27 69.2799 24.75 67.7299C24.23 66.1799 23.7 64.6199 23.17 63.0399C22.64 61.4599 22.11 59.8999 21.59 58.3399C21.07 56.7899 20.56 55.2799 20.08 53.8199C19.6 52.3599 19.15 50.9699 18.73 49.6399C18.31 48.3099 17.94 47.0899 17.62 45.9699C16.99 43.7899 16.57 41.7099 16.36 39.7099C16.15 37.7199 16.12 35.8599 16.27 34.1299C16.42 32.3999 16.74 30.8099 17.21 29.3499C17.68 27.8999 18.29 26.6199 19.03 25.5099C19.77 24.3999 20.61 23.4699 21.57 22.7299C22.53 21.9799 23.57 21.4499 24.68 21.1299C25.19 20.9799 25.68 20.9199 26.15 20.9499C26.62 20.9699 27.05 21.0699 27.44 21.2399C27.82 21.4099 28.16 21.6399 28.43 21.9399C28.71 22.2399 28.9 22.5799 29.01 22.9699C29.12 23.3499 29.14 23.7499 29.08 24.1899C29.02 24.6299 28.86 25.0799 28.6 25.5499L28.36 25.6399C28.08 25.5199 27.76 25.4099 27.4 25.2999C27.04 25.1899 26.64 25.0999 26.22 25.0499C25.79 24.9899 25.33 24.9799 24.85 24.9999C24.36 25.0199 23.85 25.1099 23.32 25.2599C22.47 25.4999 21.78 25.8899 21.24 26.4299C20.7 26.9599 20.28 27.6099 19.99 28.3799C19.7 29.1399 19.52 30.0099 19.45 30.9699C19.38 31.9299 19.41 32.9699 19.53 34.0899C19.65 35.2099 19.84 36.3799 20.1 37.6099C20.37 38.8399 20.69 40.1099 21.06 41.4099C21.48 42.8799 21.98 44.4999 22.55 46.2499C23.12 48.0099 23.73 49.8499 24.38 51.7799C25.03 53.7099 25.71 55.6999 26.4 57.7399C27.09 59.7799 27.78 61.8199 28.46 63.8499C29.14 65.8799 29.8 67.8699 30.42 69.8399C31.05 71.7999 31.62 73.6699 32.13 75.4399C32.76 77.6299 33.18 79.7199 33.39 81.6999C33.6 83.6899 33.63 85.5399 33.48 87.2699C33.33 88.9999 33.02 90.5899 32.55 92.0399C32.08 93.4899 31.47 94.7699 30.72 95.8899C29.97 96.9999 29.1 97.9399 28.11 98.6899C27.12 99.4499 26.04 99.9899 24.88 100.33C24.31 100.49 23.78 100.56 23.28 100.53C22.78 100.5 22.34 100.4 21.95 100.22C21.56 100.04 21.23 99.7999 20.96 99.4999C20.69 99.1999 20.49 98.8399 20.38 98.4399C20.26 98.0299 20.23 97.5899 20.29 97.1299C20.35 96.6699 20.51 96.1999 20.77 95.7299L21.01 95.6399Z" fill="white"/>
<path d="M1.53003 59.2698L25.06 1.52979L48.59 59.5298" stroke="white" stroke-width="3.0589" stroke-miterlimit="10" stroke-linecap="round" stroke-linejoin="round"/>
<path d="M25.06 117.52L1.53003 59.5298" stroke="white" stroke-width="3.0589" stroke-miterlimit="10" stroke-linecap="round" stroke-linejoin="round"/>
<path d="M48.5901 59.7896L25.0601 117.52" stroke="white" stroke-width="3.0589" stroke-miterlimit="10" stroke-linecap="round" stroke-linejoin="round"/>
<path d="M31.1358 68.905C39.5186 63.429 43.5106 54.698 40.0522 49.4038C36.5938 44.1096 26.9946 44.2571 18.6118 49.7331C10.229 55.2092 6.23695 63.9402 9.69535 69.2344C13.1538 74.5285 22.753 74.3811 31.1358 68.905Z" stroke="white" stroke-width="3.2083" stroke-miterlimit="10" stroke-linecap="round" stroke-linejoin="round"/>
<path d="M13.46 62.8199L13.02 62.8099C13 62.5599 13 62.3299 13 62.1299C13 61.9299 13.01 61.7499 13.04 61.5999C13.07 61.4499 13.12 61.3299 13.21 61.2399C13.3 61.1499 13.42 61.0799 13.58 61.0299C13.74 60.9899 13.96 60.9599 14.23 60.9599C14.4 60.9599 14.6 60.9599 14.82 60.9699C15.04 60.9799 15.27 60.9799 15.52 60.9899C15.76 60.9999 16.02 60.9999 16.27 61.0099C16.53 61.0199 16.78 61.0199 17.02 61.0199C17.43 61.0199 17.78 61.0199 18.09 61.0199C18.4 61.0199 18.68 61.0199 18.92 61.0199C19.16 61.0199 19.37 61.0099 19.56 61.0099C19.74 61.0099 19.91 60.9999 20.06 60.9899C20.21 60.9799 20.35 60.9699 20.48 60.9599C20.61 60.9499 20.74 60.9299 20.88 60.9199C20.93 61.0199 20.96 61.0999 20.96 61.1699C20.96 61.3099 20.88 61.4199 20.71 61.4899C20.54 61.5599 20.3 61.5999 19.97 61.5999C19.66 61.5999 19.3 61.5899 18.88 61.5599C18.46 61.5299 17.99 61.5099 17.47 61.4799C17.46 61.7899 17.45 62.1199 17.44 62.4799C17.43 62.8399 17.41 63.1999 17.4 63.5799C17.39 63.9599 17.37 64.3399 17.35 64.7399C17.33 65.1299 17.32 65.5299 17.3 65.9199C17.28 66.3099 17.26 66.7099 17.25 67.0899C17.23 67.4799 17.22 67.8499 17.2 68.2099L16.14 68.2999L16.06 68.2899C16.08 67.8899 16.11 67.4999 16.13 67.1299C16.15 66.7599 16.17 66.3999 16.19 66.0399C16.21 65.6799 16.22 65.3299 16.24 64.9699C16.25 64.6199 16.27 64.2499 16.28 63.8799C16.29 63.5099 16.3 63.1199 16.3 62.7099C16.31 62.2999 16.31 61.8699 16.31 61.4199C16.14 61.4199 15.97 61.4099 15.79 61.4099C15.61 61.4099 15.43 61.4099 15.25 61.4099C15.07 61.4099 14.9 61.4099 14.74 61.4199C14.58 61.4199 14.44 61.4399 14.31 61.4599C14.18 61.4899 14.06 61.5199 13.96 61.5799C13.86 61.6299 13.77 61.7099 13.7 61.8099C13.63 61.9099 13.57 62.0299 13.54 62.1799C13.5 62.3299 13.48 62.5199 13.48 62.7399V62.8199H13.46Z" fill="white" stroke="white" stroke-width="0.4706" stroke-miterlimit="10"/>
<path d="M28.65 50.9096C28.65 50.8096 28.65 50.7196 28.64 50.6496C28.63 50.5796 28.61 50.5196 28.58 50.4796C28.55 50.4396 28.5 50.3996 28.43 50.3796C28.36 50.3596 28.27 50.3496 28.16 50.3496C28.08 50.3496 27.99 50.3496 27.87 50.3596C27.75 50.3696 27.63 50.3796 27.51 50.3996L27.48 50.1396C27.82 50.0596 28.12 49.9996 28.37 49.9596C28.62 49.9196 28.83 49.8996 28.99 49.8996C29.13 49.8996 29.24 49.9196 29.31 49.9496C29.38 49.9896 29.44 50.0396 29.47 50.0996C29.5 50.1596 29.53 50.2396 29.53 50.3296C29.54 50.4196 29.54 50.5196 29.54 50.6196C29.54 50.6496 29.54 50.7296 29.53 50.8496C29.53 50.9696 29.52 51.1196 29.52 51.3096C29.52 51.4896 29.51 51.6996 29.5 51.9296C29.49 52.1596 29.49 52.4096 29.48 52.6596C29.47 52.9196 29.46 53.1796 29.45 53.4496C29.44 53.7196 29.43 53.9796 29.42 54.2296C29.41 54.4796 29.4 54.7196 29.4 54.9496C29.39 55.1696 29.39 55.3696 29.38 55.5396C29.38 55.7096 29.37 55.8496 29.37 55.9596C29.37 56.0696 29.36 56.1296 29.36 56.1396C29.36 56.2396 29.36 56.3296 29.37 56.4096C29.38 56.4896 29.4 56.5596 29.44 56.6096C29.48 56.6696 29.54 56.7096 29.63 56.7396C29.71 56.7696 29.83 56.7796 29.99 56.7796C30.21 56.7796 30.48 56.7796 30.81 56.7696C31.14 56.7696 31.54 56.7596 32.01 56.7596C32.02 56.3096 32.03 55.8696 32.04 55.4296C32.05 54.9896 32.06 54.5696 32.07 54.1596C32.08 53.7496 32.09 53.3496 32.1 52.9696C32.11 52.5896 32.12 52.2296 32.13 51.8896C32.14 51.5496 32.15 51.2296 32.16 50.9396C32.17 50.6496 32.18 50.3796 32.19 50.1496C32.19 50.0996 32.21 50.0596 32.23 50.0296C32.26 49.9996 32.29 49.9696 32.33 49.9496C32.37 49.9296 32.42 49.9096 32.48 49.8996C32.53 49.8896 32.59 49.8796 32.65 49.8796C32.78 49.8796 32.92 49.9096 33.08 49.9696C33.05 50.3896 33.03 50.7896 33.01 51.1596C32.99 51.5296 32.97 51.8896 32.96 52.2396C32.94 52.5896 32.93 52.9296 32.92 53.2696C32.91 53.6096 32.9 53.9596 32.89 54.3296C32.88 54.6896 32.87 55.0696 32.86 55.4696C32.85 55.8696 32.84 56.2996 32.83 56.7696C33.05 56.7696 33.27 56.7696 33.48 56.7696C33.69 56.7696 33.9 56.7696 34.12 56.7696C34.34 56.7696 34.57 56.7696 34.8 56.7696C35.04 56.7696 35.29 56.7696 35.57 56.7796C35.56 56.7296 35.54 56.6696 35.54 56.6096C35.53 56.5496 35.52 56.4696 35.52 56.3796C35.52 56.2896 35.51 56.1696 35.51 56.0396C35.51 55.9096 35.51 55.7396 35.51 55.5396C35.51 54.9396 35.52 54.3796 35.53 53.8596C35.54 53.3396 35.56 52.8596 35.58 52.4196C35.6 51.9796 35.62 51.5696 35.64 51.1896C35.66 50.8096 35.68 50.4596 35.7 50.1396C35.7 50.0896 35.72 50.0496 35.74 50.0196C35.77 49.9896 35.8 49.9596 35.84 49.9396C35.88 49.9196 35.93 49.8996 35.99 49.8896C36.04 49.8796 36.1 49.8696 36.16 49.8696C36.3 49.8696 36.44 49.8996 36.59 49.9596C36.56 50.3196 36.53 50.6696 36.51 50.9896C36.49 51.3096 36.46 51.6196 36.45 51.9196C36.43 52.2196 36.42 52.5196 36.4 52.7996C36.39 53.0896 36.38 53.3796 36.37 53.6796C36.36 53.9796 36.36 54.2796 36.35 54.5896C36.35 54.8996 36.34 55.2396 36.34 55.5896C36.34 55.7896 36.34 55.9696 36.35 56.1096C36.35 56.2496 36.37 56.3696 36.39 56.4596C36.41 56.5496 36.45 56.6296 36.5 56.6796C36.55 56.7396 36.62 56.7796 36.71 56.8096C36.8 56.8396 36.91 56.8596 37.04 56.8796C37.17 56.8896 37.34 56.9096 37.53 56.9196L37.52 57.2296C36.8 57.2196 36.14 57.2096 35.53 57.1996C34.92 57.1896 34.34 57.1896 33.79 57.1896H32.73C32.38 57.1896 32.03 57.1896 31.68 57.1896C31.34 57.1896 31.01 57.1996 30.71 57.1996C30.4 57.2096 30.12 57.2096 29.86 57.2096C29.6 57.2096 29.37 57.2096 29.18 57.2096C29.05 57.2096 28.94 57.1896 28.86 57.1596C28.77 57.1296 28.71 57.0796 28.65 57.0296C28.6 56.9696 28.56 56.9096 28.54 56.8396C28.52 56.7696 28.51 56.6896 28.51 56.6096C28.51 56.5496 28.52 56.3696 28.53 56.0796C28.55 55.7896 28.56 55.3896 28.58 54.8996C28.6 54.4096 28.62 53.8196 28.63 53.1396C28.64 52.4896 28.65 51.7396 28.65 50.9096Z" fill="white" stroke="white" stroke-width="0.7059" stroke-miterlimit="10"/>
</g>
<defs>
<clipPath id="clip0">
<rect width="50.12" height="119.05" fill="white"/>
</clipPath>
</defs>
</svg>
